<?xml version="1.0" encoding="UTF-8" standalone="no"?>
<!-- Created with Inkscape (http://www.inkscape.org/) -->

<svg
   width="600"
   height="600"
   viewBox="0 0 158.75 158.75"
   version="1.1"
   id="svg5"
   xmlns="http://www.w3.org/2000/svg"
   xmlns:svg="http://www.w3.org/2000/svg">
  <defs
     id="defs2" />
  <g
     id="layer1"
     style="display:none">
    <g
       id="g2796"
       transform="translate(-11.5625,13.229166)">
      <path
         id="path2784"
         style="opacity:1;fill:#a1d5b4;fill-opacity:1;fill-rule:evenodd;stroke-width:0.746001;stroke-linecap:round;stroke-linejoin:round"
         d="m 77.708336,6.614583 59.531254,11.90625 V 97.895827 L 77.708336,85.989577 Z" />
      <path
         id="path2786"
         style="opacity:1;fill:#a1d5b4;fill-opacity:1;fill-rule:evenodd;stroke-width:0.746001;stroke-linecap:round;stroke-linejoin:round"
         d="M 150.46875,21.166667 210,33.072917 v 80.697913 l -59.53125,-11.90625 z" />
    </g>
    <path
       style="fill:none;stroke:#000000;stroke-width:0.264583px;stroke-linecap:butt;stroke-linejoin:miter;stroke-opacity:1"
       d="M 52.916667,26.458333 185.20833,52.916667"
       id="path245" />
    <path
       style="fill:none;stroke:#000000;stroke-width:0.264583px;stroke-linecap:butt;stroke-linejoin:miter;stroke-opacity:1"
       d="M 52.890719,105.70361 185.18239,132.16194"
       id="path245-0" />
    <path
       style="fill:none;stroke:#000000;stroke-width:0.264583px;stroke-linecap:butt;stroke-linejoin:miter;stroke-opacity:1"
       d="M 52.916667,132.29167 V 7.7928822e-7 L 185.20833,26.458333 V 158.75 Z"
       id="path645" />
    <path
       style="fill:none;stroke:#000000;stroke-width:0.264583px;stroke-linecap:butt;stroke-linejoin:miter;stroke-opacity:1"
       d="M 52.916661,152.13542 53.179828,58.348895 185.4715,84.807227 185.20833,178.59375 Z"
       id="path645-5" />
    <path
       style="fill:none;stroke:#000000;stroke-width:0.264583px;stroke-linecap:butt;stroke-linejoin:miter;stroke-opacity:1"
       d="M 52.916665,156.60356 53.179835,62.817034 185.4715,89.275369 185.20833,183.06189 Z"
       id="path645-5-6" />
    <path
       style="fill:none;stroke:#000000;stroke-width:0.264583px;stroke-linecap:butt;stroke-linejoin:miter;stroke-opacity:1"
       d="m 53.048246,163.24021 0.26317,-93.786533 132.291664,26.45834 -0.26317,93.786523 z"
       id="path645-5-6-5" />
    <path
       style="fill:none;stroke:#000000;stroke-width:0.264583px;stroke-linecap:butt;stroke-linejoin:miter;stroke-opacity:1"
       d="M 52.916996,173.95073 53.179828,72.936066 185.4715,99.3944 185.20867,200.40906 Z"
       id="path645-5-81" />
    <path
       style="fill:none;stroke:#000000;stroke-width:0.264583px;stroke-linecap:butt;stroke-linejoin:miter;stroke-opacity:1"
       d="M 53.968328,131.50339 52.916667,7.7928822e-7 72.585158,3.9862647 V 136.27793 Z"
       id="path645-5-8" />
    <path
       style="fill:none;stroke:#000000;stroke-width:0.264583px;stroke-linecap:butt;stroke-linejoin:miter;stroke-opacity:1"
       d="M 44.047269,129.85667 42.995608,-1.6467261 62.664099,2.3395379 V 134.63121 Z"
       id="path645-5-8-2" />
    <path
       style="fill:none;stroke:#000000;stroke-width:0.264583px;stroke-linecap:butt;stroke-linejoin:miter;stroke-opacity:1"
       d="M 102.92161,141.42127 101.86994,9.9178716 121.53844,13.904136 V 146.19581 Z"
       id="path645-5-8-2-5" />
    <path
       style="fill:none;stroke:#000000;stroke-width:0.264583px;stroke-linecap:butt;stroke-linejoin:miter;stroke-opacity:1"
       d="m 136.03843,147.72923 -1.05167,-131.503395 19.6685,3.986264 V 152.50377 Z"
       id="path645-5-8-2-5-2" />
    <path
       style="fill:none;stroke:#000000;stroke-width:0.264583px;stroke-linecap:butt;stroke-linejoin:miter;stroke-opacity:1"
       d="M 93.459658,139.84427 92.407997,8.3408847 112.07649,12.327149 V 144.61881 Z"
       id="path645-5-8-7" />
    <path
       style="fill:none;stroke:#000000;stroke-width:0.264583px;stroke-linecap:butt;stroke-linejoin:miter;stroke-opacity:1"
       d="M 126.57647,145.36374 125.52481,13.860354 145.1933,17.846618 V 150.13828 Z"
       id="path645-5-8-7-1-2" />
    <path
       id="rect731"
       style="opacity:0.290557;fill-rule:evenodd;stroke-width:0.746001;stroke-linecap:round;stroke-linejoin:round"
       d="m 52.916667,26.458333 59.531253,11.90625 V 117.73958 L 52.916667,105.83333 Z" />
    <path
       id="rect731-2"
       style="opacity:0.290557;fill-rule:evenodd;stroke-width:0.746001;stroke-linecap:round;stroke-linejoin:round"
       d="m 125.67708,41.010417 59.53125,11.90625 v 80.697913 l -59.53125,-11.90625 z" />
    <path
       style="fill:none;stroke:#000000;stroke-width:0.264583px;stroke-linecap:butt;stroke-linejoin:miter;stroke-opacity:1"
       d="M 19.84375,26.458333 V 105.83333"
       id="path3177" />
  </g>
  <g
     id="layer2"
     style="display:none">
    <path
       style="fill:none;stroke:#13f600;stroke-width:0.965;stroke-linecap:butt;stroke-linejoin:miter;stroke-dasharray:none;stroke-opacity:1"
       d="m 125.37079,40.738938 0.7885,79.638052 c 1.16662,0.38187 28.4809,5.83882 28.4809,5.83882 16.10649,2.32024 28.41028,-2.13857 30.1757,-10.86451 4.31781,-21.341707 -19.41767,-27.783199 -19.41767,-27.783199 0,0 20.50899,3.863155 19.89824,-17.917659 -0.27958,-9.970388 -9.25603,-19.222255 -30.49037,-22.792396 -1.0131,-0.170335 -28.11801,-5.783456 -29.4353,-6.119108 z"
       id="path3264" />
    <path
       style="opacity:0.407035;fill:#0010e4;fill-opacity:1;fill-rule:evenodd;stroke:#f6008e;stroke-width:1.46059;stroke-linecap:round;stroke-linejoin:round;stroke-dasharray:none;stroke-opacity:1"
       id="path3318"
       d="m -61.564075,187.55003 a 11.89288,36.975899 0 0 1 -11.480399,36.95366 11.89288,36.975899 0 0 1 -12.276749,-34.39033 11.89288,36.975899 0 0 1 10.62881,-39.33917 11.89288,36.975899 0 0 1 13.014027,31.66152"
       transform="matrix(0.54738276,-0.83688238,0.97219357,0.23417871,0,0)" />
    <path
       style="fill:none;stroke:#18f10e;stroke-width:1.065;stroke-linecap:butt;stroke-linejoin:miter;stroke-dasharray:none;stroke-opacity:1"
       d="m 145.3779,56.349415 v 20.134654 c 35.18469,7.040947 31.04171,-15.931705 0,-20.134654 z"
       id="path3364" />
    <path
       style="fill:none;stroke:#18f10e;stroke-width:1.065;stroke-linecap:butt;stroke-linejoin:miter;stroke-dasharray:none;stroke-opacity:1"
       d="m 144.42833,94.495053 v 20.134657 c 38.15829,12.0589 39.77667,-15.560008 0,-20.134657 z"
       id="path3364-1" />
    <path
       id="path3410-0-3-5"
       style="fill:#000080;fill-opacity:1;stroke:none;stroke-width:0.566206px;stroke-linecap:butt;stroke-linejoin:miter;stroke-opacity:1"
       d="m 161.36402,41.733839 c -1.08479,-0.235396 -2.20771,-0.453127 -3.37141,-0.652692 l -23.24848,-4.952719 v 79.487262 l 23.38836,4.84155 c 43.83192,11.75655 45.59393,-28.113348 19.18651,-41.515043 13.84378,-5.248622 17.67378,-29.895836 -15.95498,-37.208273 z m -16.11687,5.293982 18.51795,3.944954 c 17.70521,4.30305 15.57644,26.05755 -0.29739,22.998808 l -18.41882,-3.724009 z m 0.0441,32.256435 18.51795,3.944956 c 31.07394,7.25087 20.42889,35.176008 -0.19822,29.108008 l -18.41882,-3.72401 z" />
    <g
       aria-label="H"
       id="text3528-8"
       style="font-size:50.8px;line-height:1.25;font-family:'Times New Roman';-inkscape-font-specification:'Times New Roman, ';fill:#000080;fill-opacity:1;stroke-width:0.264583"
       transform="matrix(2.05469,0.4376227,0,2.1355451,94.998483,-257.9165)">
      <path
         d="m -16.20118,133.94876 h 5.010547 v 15.18047 H 7.0160072 v -15.18047 h 5.0105468 v 37.0334 H 7.0160072 V 153.34603 H -11.190633 v 17.63613 h -5.010547 z"
         style="font-family:sans-serif;-inkscape-font-specification:sans-serif;fill:#000080;fill-opacity:1"
         id="path3530-1" />
    </g>
    <path
       id="path4011"
       style="fill:#d35f8d;fill-opacity:1;stroke:none;stroke-width:0.264583px;stroke-linecap:butt;stroke-linejoin:miter;stroke-opacity:1"
       d="m 133.60194,35.729588 -7.78146,5.250735 3.67756,74.526057 c 0,0 31.67133,7.0966 32.197,7.62227 0.52566,0.52566 7.96275,3.95055 7.96275,3.95055 7.69291,-2.01896 25.40364,-8.16304 25.08556,-21.5352 -0.19729,-12.78073 -8.13525,-21.656739 -17.02146,-26.446991 5.81502,-2.641683 9.62821,-8.749673 9.63327,-14.155328 0.005,-5.405655 -0.50323,-7.434734 -4.84969,-12.740872 -4.34645,-5.306137 -13.64602,-8.536159 -16.07945,-9.367508 -2.43343,-0.831349 -32.82408,-7.103713 -32.82408,-7.103713 z m 19.0275,17.28423 14.17123,6.690548 c 0,0 3.16344,5.903316 3.0577,7.457426 -0.1803,2.649735 -2.8818,5.310778 -6.12418,5.113383 l -18.81769,-3.478857 0.32528,-17.03685 z m -6.923,31.176278 13.00945,2.509005 17.47026,10.686169 c 0,0 1.77744,6.68942 0.26716,9.47074 -2.95549,5.4428 -4.46435,6.0886 -10.1971,5.39551 l -21.01495,-4.79127 c -0.0211,-0.42668 0.49749,-22.948808 0.46518,-23.270154 z" />
    <path
       style="opacity:1;fill:#671c3b;fill-opacity:1;stroke:none;stroke-width:0.264583px;stroke-linecap:butt;stroke-linejoin:miter;stroke-opacity:1"
       d="m 145.05607,68.730018 0.20005,-19.295472 -13.20956,-1.299348 0.18585,36.984187 -1.30095,33.545965 14.68216,1.20802 28.73708,5.81363 c 10.32327,-3.64662 19.70277,-8.94856 20.37965,-19.03541 l -12.83507,8.81005 -1.15597,-17.053966 -15.4224,-13.608055 c 5.68627,-2.282971 22.4982,-7.194078 22.0323,-20.804586 l -9.17737,6.42682 c -5.53374,6.339628 -10.17659,6.801283 -19.36286,11.259305 7.82535,8.70965 15.83734,11.806516 16.43067,24.132182 -0.94989,15.09957 -23.12547,17.62756 -40.18762,8.31462 l 10.22537,-6.90874 0.3362,-22.564458 -9.66421,-9.571286 z"
       id="path4019" />
    <path
       id="path3410-0-3"
       style="fill:#c83771;fill-opacity:1;stroke:none;stroke-width:0.566206px;stroke-linecap:butt;stroke-linejoin:miter;stroke-opacity:1"
       d="m 152.42695,46.580945 c -1.08479,-0.235396 -2.20771,-0.453127 -3.37141,-0.652692 L 125.80706,40.975534 V 120.4628 l 23.38836,4.84155 c 43.83192,11.75655 45.59393,-28.113355 19.18651,-41.515047 13.84378,-5.248622 17.67378,-29.895836 -15.95498,-37.208273 z m -16.11687,5.293982 18.51795,3.944954 c 17.70521,4.30305 15.57644,26.05755 -0.29739,22.998808 L 136.11182,75.09468 Z m 0.0441,32.256435 18.51795,3.944954 c 31.07394,7.250874 20.42889,35.176014 -0.19822,29.108014 l -18.41882,-3.72401 z" />
    <path
       style="fill:#d35f8d;fill-opacity:1;stroke:none;stroke-width:0.264583px;stroke-linecap:butt;stroke-linejoin:miter;stroke-opacity:1"
       d="M 53.553838,26.924157 61.73448,21.109 l 10.250443,2.135511 0.004,32.407178 29.486877,6.362544 -0.22186,-25.012302 8.17428,-5.788647 10.2933,2.219975 -0.002,79.061731 -8.19138,5.76799 -9.08551,-40.153816 -30.421328,-6.764826 -0.02945,30.995102 -8.17524,5.76168 c -0.06416,0.0452 -5.525105,-72.301209 -10.262469,-81.176963 z"
       id="path3996" />
    <path
       style="opacity:1;fill:#782144;fill-opacity:1;stroke:none;stroke-width:0.264583px;stroke-linecap:butt;stroke-linejoin:miter;stroke-opacity:1"
       d="m 63.398356,29.310897 8.609358,-6.074918 0.131416,32.328318 -8.604206,5.921923 1.174161,3.916473 c 14.74857,2.102834 35.951685,5.458391 44.223335,6.352156 l 2.2138,-32.368327 8.57369,-5.87546 -1e-5,78.980968 -8.18762,5.76914 C 110.96015,118.02565 109.19141,95.233347 108.721,78.834488 L 71.884512,67.54779 l 0.110349,34.78474 -8.173766,5.77673 -1.91932,-42.855963 -5.975767,-36.749975 z"
       id="path4007" />
    <path
       d="m 53.535584,26.822234 10.295121,2.192729 V 61.433541 L 101.23971,69.40118 V 36.982602 l 10.29512,2.192729 V 118.26183 L 101.23971,116.0691 V 78.406347 L 63.830705,70.438708 v 37.662752 l -10.295121,-2.19273 z"
       style="font-size:50.8px;line-height:1.25;font-family:sans-serif;-inkscape-font-specification:sans-serif;fill:#c83771;fill-opacity:1;stroke-width:0.554229"
       id="path3530" />
  </g>
  <g
     id="layer4">
    <rect
       style="font-size:50.8px;font-family:Cinzel;-inkscape-font-specification:'Cinzel, @wght=646';font-variation-settings:'wght' 646;text-align:center;text-anchor:middle;display:none;fill:#2a1748;fill-opacity:1;stroke-width:2;stroke-linecap:round;stroke-linejoin:round"
       id="rect4042"
       width="158.75"
       height="158.75"
       x="-0.79375732"
       y="0.66144335" />
    <g
       id="g5530"
       style="display:none">
      <rect
         style="font-variation-settings:'wght' 646;opacity:1;fill:#000000;fill-opacity:1;stroke-width:1.14286;stroke-linecap:round;stroke-linejoin:round"
         id="rect5241"
         width="10.583331"
         height="10.583331"
         x="137.58334"
         y="134.9375" />
      <rect
         style="font-variation-settings:'wght' 646;fill:#000000;fill-opacity:1;stroke-width:1.14286;stroke-linecap:round;stroke-linejoin:round"
         id="rect5241-9"
         width="10.583331"
         height="10.583331"
         x="10.583336"
         y="134.9375" />
      <rect
         style="font-variation-settings:'wght' 646;fill:#000000;fill-opacity:1;stroke-width:1.14286;stroke-linecap:round;stroke-linejoin:round"
         id="rect5241-9-6"
         width="10.583331"
         height="10.583331"
         x="10.583335"
         y="13.229167" />
      <rect
         style="font-variation-settings:'wght' 646;fill:#000000;fill-opacity:1;stroke-width:1.14286;stroke-linecap:round;stroke-linejoin:round"
         id="rect5241-9-69"
         width="10.583331"
         height="10.583331"
         x="137.58333"
         y="13.229167" />
    </g>
    <g
       id="g5665"
       transform="matrix(1.1232388,0,0,1.1232388,-10.067389,-10.724779)">
      <rect
         style="font-size:50.8px;font-family:Cinzel;-inkscape-font-specification:'Cinzel, @wght=646';font-variation-settings:'wght' 646;text-align:center;text-anchor:middle;fill:#ffffff;fill-opacity:1;stroke-width:2;stroke-linecap:round;stroke-linejoin:round"
         id="rect5644"
         width="135.26511"
         height="84.189903"
         x="11.907523"
         y="38.375862" />
      <g
         aria-label="HB"
         id="text549-7"
         style="font-size:50.8px;font-family:Cinzel;-inkscape-font-specification:'Cinzel, @wght=646';font-variation-settings:'wght' 646;text-align:center;text-anchor:middle;display:inline;fill:#010101;fill-opacity:1;stroke-width:2;stroke-linecap:round;stroke-linejoin:round"
         transform="matrix(1.8239385,0,0,1.8239385,370.89759,-519.59466)">
        <path
           d="m -163.84459,316.70956 q 0,-1.4732 -0.3048,-2.2352 -0.3048,-0.762 -1.27,-1.0668 -0.9144,-0.3048 -2.8956,-0.3048 -0.1524,0 -0.1524,-0.3048 0,-0.3048 0.1524,-0.3048 1.2192,0 2.7432,0.1016 1.524,0.0508 3.4036,0.0508 1.6764,0 3.2512,-0.0508 1.5748,-0.1016 2.7432,-0.1016 0.1524,0 0.1524,0.3048 0,0.3048 -0.1524,0.3048 -1.8796,0 -2.8448,0.3048 -0.9652,0.254 -1.27,1.016 -0.3048,0.7112 -0.3048,2.1844 v 23.5204 q 0,1.4732 0.3048,2.2352 0.3048,0.762 1.27,1.016 0.9652,0.254 2.8448,0.254 0.1524,0 0.1524,0.3048 0,0.3048 -0.1524,0.3048 -1.1684,0 -2.7432,-0.0508 -1.5748,-0.0508 -3.2512,-0.0508 -1.8796,0 -3.4036,0.0508 -1.524,0.0508 -2.7432,0.0508 -0.1524,0 -0.1524,-0.3048 0,-0.3048 0.1524,-0.3048 1.9812,0 2.8956,-0.254 0.9652,-0.254 1.27,-1.016 0.3048,-0.762 0.3048,-2.2352 z m -21.2852,11.5316 v -1.0668 h 22.7076 v 1.0668 z m -1.4732,11.8872 v -23.5204 q 0,-1.4732 -0.3556,-2.1844 -0.3048,-0.762 -1.27,-1.016 -0.9144,-0.3048 -2.794,-0.3048 -0.1016,0 -0.1016,-0.3048 0,-0.3048 0.1016,-0.3048 1.2192,0 2.7432,0.1016 1.5748,0.0508 3.2512,0.0508 1.8796,0 3.4036,-0.0508 1.524,-0.1016 2.7432,-0.1016 0.1016,0 0.1016,0.3048 0,0.3048 -0.1016,0.3048 -1.8796,0 -2.8448,0.3048 -0.9652,0.3048 -1.3208,1.0668 -0.3048,0.762 -0.3048,2.2352 v 23.4188 q 0,1.4732 0.3048,2.2352 0.3048,0.762 1.27,1.016 1.016,0.254 2.8956,0.254 0.1016,0 0.1016,0.3048 0,0.3048 -0.1016,0.3048 -1.27,0 -2.794,-0.0508 -1.4732,-0.0508 -3.3528,-0.0508 -1.6764,0 -3.2512,0.0508 -1.5748,0.0508 -2.794,0.0508 -0.1016,0 -0.1016,-0.3048 0,-0.3048 0.1016,-0.3048 1.8796,0 2.8448,-0.254 0.9652,-0.254 1.27,-1.016 0.3556,-0.762 0.3556,-2.2352 z"
           style="font-family:Cormorant;-inkscape-font-specification:'Cormorant, @wght=646';fill:#010101;fill-opacity:1"
           id="path551-3" />
        <path
           d="m -139.05415,326.86956 0.5588,-0.5588 c 1.99813,0 3.74227,0.37253 5.2324,1.1176 1.524,0.74507 2.6924,1.76107 3.5052,3.048 0.84667,1.28693 1.27,2.76013 1.27,4.4196 0,1.79493 -0.44027,3.42053 -1.3208,4.8768 -0.88053,1.45627 -2.09973,2.60773 -3.6576,3.4544 -1.524,0.8128 -3.23427,1.2192 -5.1308,1.2192 -1.08373,0 -2.31987,-0.0508 -3.7084,-0.1524 -1.35467,-0.1016 -2.60773,-0.1524 -3.7592,-0.1524 -1.1176,0 -2.20133,0.0169 -3.2512,0.0508 -1.016,0.0339 -1.94733,0.0508 -2.794,0.0508 -0.0677,0 -0.1016,-0.1016 -0.1016,-0.3048 0,-0.2032 0.0339,-0.3048 0.1016,-0.3048 1.2192,0 2.15053,-0.0847 2.794,-0.254 0.64347,-0.16933 1.08373,-0.508 1.3208,-1.016 0.23707,-0.508 0.3556,-1.25307 0.3556,-2.2352 v -8.34086 -15.17954 c 0,-0.98213 -0.11853,-1.71027 -0.3556,-2.1844 -0.2032,-0.508 -0.62653,-0.84667 -1.27,-1.016 -0.6096,-0.2032 -1.524,-0.3048 -2.7432,-0.3048 -0.1016,0 -0.1524,-0.1016 -0.1524,-0.3048 0,-0.2032 0.0508,-0.3048 0.1524,-0.3048 0.8128,0 1.7272,0.0339 2.7432,0.1016 1.016,0.0339 2.0828,0.0508 3.2004,0.0508 0.88053,0 1.89653,-0.0508 3.048,-0.1524 1.15147,-0.1016 2.1336,-0.1524 2.9464,-0.1524 1.99813,0 3.62373,0.3048 4.8768,0.9144 1.25307,0.57573 2.16747,1.3716 2.7432,2.3876 0.6096,1.016 0.9144,2.15053 0.9144,3.4036 0,1.9304 -0.7112,3.57293 -2.1336,4.9276 -1.38853,1.35467 -3.18347,2.31987 -5.3848,2.8956 z m -2.1336,-13.7668 c -0.77893,0 -1.40547,0.0677 -1.8796,0.2032 -0.47413,0.13547 -0.8128,0.4572 -1.016,0.9652 -0.2032,0.47413 -0.3048,1.28693 -0.3048,2.4384 v 9.9568 l -1.6256,-0.4064 c 1.08373,0.0677 1.9812,0.11853 2.6924,0.1524 h 1.2192 c 2.60773,0 4.4704,-0.6604 5.588,-1.9812 1.1176,-1.35467 1.6764,-3.01413 1.6764,-4.9784 0,-1.18533 -0.22013,-2.25213 -0.6604,-3.2004 -0.4064,-0.98213 -1.0668,-1.74413 -1.9812,-2.286 -0.9144,-0.57573 -2.15053,-0.8636 -3.7084,-0.8636 z m 1.8288,30.4292 c 2.54,0 4.38573,-0.64347 5.5372,-1.9304 1.18533,-1.3208 1.778,-3.13267 1.778,-5.4356 0,-2.54 -0.74507,-4.6228 -2.2352,-6.2484 -1.49013,-1.6256 -3.57293,-2.4384 -6.2484,-2.4384 -0.84667,-0.0339 -1.7272,-0.0339 -2.6416,0 -0.88053,0.0339 -1.778,0.11853 -2.6924,0.254 l 1.4732,-0.5588 v 12.954 c 0,0.8128 0.11853,1.4732 0.3556,1.9812 0.23707,0.508 0.7112,0.88053 1.4224,1.1176 0.74507,0.2032 1.8288,0.3048 3.2512,0.3048 z"
           style="font-family:Cormorant;-inkscape-font-specification:'Cormorant, @wght=646';fill:#010101;fill-opacity:1"
           id="path553-7" />
      </g>
      <g
         id="g5586"
         transform="translate(0.74835466,49.484953)">
        <path
           style="font-variation-settings:'wght' 646;fill:#000000;fill-opacity:1;stroke-width:2;stroke-linecap:round;stroke-linejoin:round"
           d="m 19.471723,-11.770498 c 0.004,0.43616 -0.41463,0.60389 -1.21029,0.64903 -0.65468,0.0658 -0.7721,-0.002 -1.33586,0.0449 -4.84022,0.4015 -5.31146,1.24755 -5.27082,3.94428 0.01,0.66591 0.001,1.23244 0.001,1.31806 2.1e-4,0.80212 -0.0479,1.27361 -0.61381,1.31902 -0.56594,0.0454 -0.67431,-0.13078 -0.70704,-1.28188 -0.0173,-0.60738 -0.0157,-2.42684 -0.0104,-4.01016 0.005,-1.41735 0.15882,-2.04637 0.51531,-2.36483 0.35649,-0.31846 2.14614,-0.28063 2.14614,-0.28063 h 5.3077 c 1.17756,0.0609 1.17451,0.22605 1.17808,0.6622 z"
           id="path5367-8-4" />
        <path
           style="font-variation-settings:'wght' 646;fill:#000000;fill-opacity:1;stroke-width:2;stroke-linecap:round;stroke-linejoin:round"
           d="m 138.43111,-11.481335 c -0.004,0.43616 0.41463,0.60389 1.21029,0.64903 0.65468,0.0658 0.7721,-0.002 1.33586,0.0449 4.84022,0.4015 5.31146,1.24755 5.27082,3.94428 -0.01,0.66591 -10e-4,1.23244 -10e-4,1.31806 -2.1e-4,0.80212 0.0479,1.27361 0.61381,1.31902 0.56594,0.0454 0.67431,-0.13078 0.70704,-1.28188 0.0173,-0.60738 0.0157,-2.42684 0.0104,-4.01016 -0.005,-1.41735 -0.15882,-2.04637 -0.51531,-2.36483 -0.35649,-0.31846 -2.14614,-0.28063 -2.14614,-0.28063 h -5.3077 c -1.17756,0.0609 -1.17451,0.22605 -1.17808,0.6622 z"
           id="path5367-9-1" />
      </g>
      <g
         id="g5590"
         transform="translate(0.37417734,3.928862)">
        <path
           style="font-variation-settings:'wght' 646;fill:#000000;fill-opacity:1;stroke-width:2;stroke-linecap:round;stroke-linejoin:round"
           d="m 138.19846,118.49606 c -0.004,-0.43616 0.41463,-0.60389 1.21029,-0.64903 0.65468,-0.0658 0.7721,0.002 1.33586,-0.0449 4.84022,-0.4015 5.31146,-1.24755 5.27082,-3.94428 -0.01,-0.66591 -0.001,-1.23244 -0.001,-1.31806 -2.1e-4,-0.80212 0.0479,-1.27361 0.61381,-1.31902 0.56594,-0.0454 0.67431,0.13078 0.70704,1.28188 0.0173,0.60738 0.0157,2.42684 0.0104,4.01016 -0.005,1.41735 -0.15882,2.04637 -0.51531,2.36483 -0.35649,0.31846 -2.14614,0.28063 -2.14614,0.28063 h -5.3077 c -1.17756,-0.0609 -1.17451,-0.22605 -1.17808,-0.6622 z"
           id="path5367-3" />
        <path
           style="font-variation-settings:'wght' 646;fill:#000000;fill-opacity:1;stroke-width:2;stroke-linecap:round;stroke-linejoin:round"
           d="m 19.70437,118.78522 c 0.004,-0.43616 -0.41463,-0.60389 -1.21029,-0.64903 -0.65468,-0.0658 -0.7721,0.002 -1.33586,-0.0449 -4.84022,-0.4015 -5.31146,-1.24755 -5.27082,-3.94428 0.01,-0.66591 0.001,-1.23244 0.001,-1.31806 2.1e-4,-0.80212 -0.0479,-1.27361 -0.61381,-1.31902 -0.56594,-0.0454 -0.67431,0.13078 -0.70704,1.28188 -0.0173,0.60738 -0.0157,2.42684 -0.0104,4.01016 0.005,1.41735 0.15882,2.04637 0.51531,2.36483 0.35649,0.31846 2.14614,0.28063 2.14614,0.28063 h 5.3077 c 1.17756,-0.0609 1.17451,-0.22605 1.17808,-0.6622 z"
           id="path5367-8-9-2" />
      </g>
    </g>
  </g>
</svg>
